%TF.GenerationSoftware,KiCad,Pcbnew,(6.0.9)*%
%TF.CreationDate,2023-07-13T02:30:16+01:00*%
%TF.ProjectId,Resonant_Converter_V1,5265736f-6e61-46e7-945f-436f6e766572,rev?*%
%TF.SameCoordinates,Original*%
%TF.FileFunction,Legend,Bot*%
%TF.FilePolarity,Positive*%
%FSLAX46Y46*%
G04 Gerber Fmt 4.6, Leading zero omitted, Abs format (unit mm)*
G04 Created by KiCad (PCBNEW (6.0.9)) date 2023-07-13 02:30:16*
%MOMM*%
%LPD*%
G01*
G04 APERTURE LIST*
%ADD10C,0.150000*%
%ADD11C,0.120000*%
G04 APERTURE END LIST*
D10*
X202261904Y-110392857D02*
X200738095Y-110392857D01*
X201500000Y-111154761D02*
X201500000Y-109630952D01*
%TO.C,Q2*%
X164595238Y-88297619D02*
X164690476Y-88250000D01*
X164785714Y-88154761D01*
X164928571Y-88011904D01*
X165023809Y-87964285D01*
X165119047Y-87964285D01*
X165071428Y-88202380D02*
X165166666Y-88154761D01*
X165261904Y-88059523D01*
X165309523Y-87869047D01*
X165309523Y-87535714D01*
X165261904Y-87345238D01*
X165166666Y-87250000D01*
X165071428Y-87202380D01*
X164880952Y-87202380D01*
X164785714Y-87250000D01*
X164690476Y-87345238D01*
X164642857Y-87535714D01*
X164642857Y-87869047D01*
X164690476Y-88059523D01*
X164785714Y-88154761D01*
X164880952Y-88202380D01*
X165071428Y-88202380D01*
X164261904Y-87297619D02*
X164214285Y-87250000D01*
X164119047Y-87202380D01*
X163880952Y-87202380D01*
X163785714Y-87250000D01*
X163738095Y-87297619D01*
X163690476Y-87392857D01*
X163690476Y-87488095D01*
X163738095Y-87630952D01*
X164309523Y-88202380D01*
X163690476Y-88202380D01*
%TO.C,C8*%
X66666666Y-63857142D02*
X66714285Y-63904761D01*
X66857142Y-63952380D01*
X66952380Y-63952380D01*
X67095238Y-63904761D01*
X67190476Y-63809523D01*
X67238095Y-63714285D01*
X67285714Y-63523809D01*
X67285714Y-63380952D01*
X67238095Y-63190476D01*
X67190476Y-63095238D01*
X67095238Y-63000000D01*
X66952380Y-62952380D01*
X66857142Y-62952380D01*
X66714285Y-63000000D01*
X66666666Y-63047619D01*
X66095238Y-63380952D02*
X66190476Y-63333333D01*
X66238095Y-63285714D01*
X66285714Y-63190476D01*
X66285714Y-63142857D01*
X66238095Y-63047619D01*
X66190476Y-63000000D01*
X66095238Y-62952380D01*
X65904761Y-62952380D01*
X65809523Y-63000000D01*
X65761904Y-63047619D01*
X65714285Y-63142857D01*
X65714285Y-63190476D01*
X65761904Y-63285714D01*
X65809523Y-63333333D01*
X65904761Y-63380952D01*
X66095238Y-63380952D01*
X66190476Y-63428571D01*
X66238095Y-63476190D01*
X66285714Y-63571428D01*
X66285714Y-63761904D01*
X66238095Y-63857142D01*
X66190476Y-63904761D01*
X66095238Y-63952380D01*
X65904761Y-63952380D01*
X65809523Y-63904761D01*
X65761904Y-63857142D01*
X65714285Y-63761904D01*
X65714285Y-63571428D01*
X65761904Y-63476190D01*
X65809523Y-63428571D01*
X65904761Y-63380952D01*
%TO.C,R26*%
X86702380Y-82107142D02*
X86226190Y-81773809D01*
X86702380Y-81535714D02*
X85702380Y-81535714D01*
X85702380Y-81916666D01*
X85750000Y-82011904D01*
X85797619Y-82059523D01*
X85892857Y-82107142D01*
X86035714Y-82107142D01*
X86130952Y-82059523D01*
X86178571Y-82011904D01*
X86226190Y-81916666D01*
X86226190Y-81535714D01*
X85797619Y-82488095D02*
X85750000Y-82535714D01*
X85702380Y-82630952D01*
X85702380Y-82869047D01*
X85750000Y-82964285D01*
X85797619Y-83011904D01*
X85892857Y-83059523D01*
X85988095Y-83059523D01*
X86130952Y-83011904D01*
X86702380Y-82440476D01*
X86702380Y-83059523D01*
X85702380Y-83916666D02*
X85702380Y-83726190D01*
X85750000Y-83630952D01*
X85797619Y-83583333D01*
X85940476Y-83488095D01*
X86130952Y-83440476D01*
X86511904Y-83440476D01*
X86607142Y-83488095D01*
X86654761Y-83535714D01*
X86702380Y-83630952D01*
X86702380Y-83821428D01*
X86654761Y-83916666D01*
X86607142Y-83964285D01*
X86511904Y-84011904D01*
X86273809Y-84011904D01*
X86178571Y-83964285D01*
X86130952Y-83916666D01*
X86083333Y-83821428D01*
X86083333Y-83630952D01*
X86130952Y-83535714D01*
X86178571Y-83488095D01*
X86273809Y-83440476D01*
%TO.C,C72*%
X173819761Y-105887142D02*
X173867380Y-105934761D01*
X174010237Y-105982380D01*
X174105475Y-105982380D01*
X174248332Y-105934761D01*
X174343570Y-105839523D01*
X174391189Y-105744285D01*
X174438808Y-105553809D01*
X174438808Y-105410952D01*
X174391189Y-105220476D01*
X174343570Y-105125238D01*
X174248332Y-105030000D01*
X174105475Y-104982380D01*
X174010237Y-104982380D01*
X173867380Y-105030000D01*
X173819761Y-105077619D01*
X173486427Y-104982380D02*
X172819761Y-104982380D01*
X173248332Y-105982380D01*
X172486427Y-105077619D02*
X172438808Y-105030000D01*
X172343570Y-104982380D01*
X172105475Y-104982380D01*
X172010237Y-105030000D01*
X171962618Y-105077619D01*
X171914999Y-105172857D01*
X171914999Y-105268095D01*
X171962618Y-105410952D01*
X172534046Y-105982380D01*
X171914999Y-105982380D01*
%TO.C,Q5*%
X75595238Y-95047619D02*
X75690476Y-95000000D01*
X75785714Y-94904761D01*
X75928571Y-94761904D01*
X76023809Y-94714285D01*
X76119047Y-94714285D01*
X76071428Y-94952380D02*
X76166666Y-94904761D01*
X76261904Y-94809523D01*
X76309523Y-94619047D01*
X76309523Y-94285714D01*
X76261904Y-94095238D01*
X76166666Y-94000000D01*
X76071428Y-93952380D01*
X75880952Y-93952380D01*
X75785714Y-94000000D01*
X75690476Y-94095238D01*
X75642857Y-94285714D01*
X75642857Y-94619047D01*
X75690476Y-94809523D01*
X75785714Y-94904761D01*
X75880952Y-94952380D01*
X76071428Y-94952380D01*
X74738095Y-93952380D02*
X75214285Y-93952380D01*
X75261904Y-94428571D01*
X75214285Y-94380952D01*
X75119047Y-94333333D01*
X74880952Y-94333333D01*
X74785714Y-94380952D01*
X74738095Y-94428571D01*
X74690476Y-94523809D01*
X74690476Y-94761904D01*
X74738095Y-94857142D01*
X74785714Y-94904761D01*
X74880952Y-94952380D01*
X75119047Y-94952380D01*
X75214285Y-94904761D01*
X75261904Y-94857142D01*
%TO.C,R14*%
X92892857Y-71832380D02*
X93226190Y-71356190D01*
X93464285Y-71832380D02*
X93464285Y-70832380D01*
X93083333Y-70832380D01*
X92988095Y-70880000D01*
X92940476Y-70927619D01*
X92892857Y-71022857D01*
X92892857Y-71165714D01*
X92940476Y-71260952D01*
X92988095Y-71308571D01*
X93083333Y-71356190D01*
X93464285Y-71356190D01*
X91940476Y-71832380D02*
X92511904Y-71832380D01*
X92226190Y-71832380D02*
X92226190Y-70832380D01*
X92321428Y-70975238D01*
X92416666Y-71070476D01*
X92511904Y-71118095D01*
X91083333Y-71165714D02*
X91083333Y-71832380D01*
X91321428Y-70784761D02*
X91559523Y-71499047D01*
X90940476Y-71499047D01*
%TO.C,C83*%
X152457857Y-101527142D02*
X152505476Y-101574761D01*
X152648333Y-101622380D01*
X152743571Y-101622380D01*
X152886428Y-101574761D01*
X152981666Y-101479523D01*
X153029285Y-101384285D01*
X153076904Y-101193809D01*
X153076904Y-101050952D01*
X153029285Y-100860476D01*
X152981666Y-100765238D01*
X152886428Y-100670000D01*
X152743571Y-100622380D01*
X152648333Y-100622380D01*
X152505476Y-100670000D01*
X152457857Y-100717619D01*
X151886428Y-101050952D02*
X151981666Y-101003333D01*
X152029285Y-100955714D01*
X152076904Y-100860476D01*
X152076904Y-100812857D01*
X152029285Y-100717619D01*
X151981666Y-100670000D01*
X151886428Y-100622380D01*
X151695952Y-100622380D01*
X151600714Y-100670000D01*
X151553095Y-100717619D01*
X151505476Y-100812857D01*
X151505476Y-100860476D01*
X151553095Y-100955714D01*
X151600714Y-101003333D01*
X151695952Y-101050952D01*
X151886428Y-101050952D01*
X151981666Y-101098571D01*
X152029285Y-101146190D01*
X152076904Y-101241428D01*
X152076904Y-101431904D01*
X152029285Y-101527142D01*
X151981666Y-101574761D01*
X151886428Y-101622380D01*
X151695952Y-101622380D01*
X151600714Y-101574761D01*
X151553095Y-101527142D01*
X151505476Y-101431904D01*
X151505476Y-101241428D01*
X151553095Y-101146190D01*
X151600714Y-101098571D01*
X151695952Y-101050952D01*
X151172142Y-100622380D02*
X150553095Y-100622380D01*
X150886428Y-101003333D01*
X150743571Y-101003333D01*
X150648333Y-101050952D01*
X150600714Y-101098571D01*
X150553095Y-101193809D01*
X150553095Y-101431904D01*
X150600714Y-101527142D01*
X150648333Y-101574761D01*
X150743571Y-101622380D01*
X151029285Y-101622380D01*
X151124523Y-101574761D01*
X151172142Y-101527142D01*
%TO.C,R24*%
X86702380Y-89157142D02*
X86226190Y-88823809D01*
X86702380Y-88585714D02*
X85702380Y-88585714D01*
X85702380Y-88966666D01*
X85750000Y-89061904D01*
X85797619Y-89109523D01*
X85892857Y-89157142D01*
X86035714Y-89157142D01*
X86130952Y-89109523D01*
X86178571Y-89061904D01*
X86226190Y-88966666D01*
X86226190Y-88585714D01*
X85797619Y-89538095D02*
X85750000Y-89585714D01*
X85702380Y-89680952D01*
X85702380Y-89919047D01*
X85750000Y-90014285D01*
X85797619Y-90061904D01*
X85892857Y-90109523D01*
X85988095Y-90109523D01*
X86130952Y-90061904D01*
X86702380Y-89490476D01*
X86702380Y-90109523D01*
X86035714Y-90966666D02*
X86702380Y-90966666D01*
X85654761Y-90728571D02*
X86369047Y-90490476D01*
X86369047Y-91109523D01*
%TO.C,C84*%
X158807857Y-105837142D02*
X158855476Y-105884761D01*
X158998333Y-105932380D01*
X159093571Y-105932380D01*
X159236428Y-105884761D01*
X159331666Y-105789523D01*
X159379285Y-105694285D01*
X159426904Y-105503809D01*
X159426904Y-105360952D01*
X159379285Y-105170476D01*
X159331666Y-105075238D01*
X159236428Y-104980000D01*
X159093571Y-104932380D01*
X158998333Y-104932380D01*
X158855476Y-104980000D01*
X158807857Y-105027619D01*
X158236428Y-105360952D02*
X158331666Y-105313333D01*
X158379285Y-105265714D01*
X158426904Y-105170476D01*
X158426904Y-105122857D01*
X158379285Y-105027619D01*
X158331666Y-104980000D01*
X158236428Y-104932380D01*
X158045952Y-104932380D01*
X157950714Y-104980000D01*
X157903095Y-105027619D01*
X157855476Y-105122857D01*
X157855476Y-105170476D01*
X157903095Y-105265714D01*
X157950714Y-105313333D01*
X158045952Y-105360952D01*
X158236428Y-105360952D01*
X158331666Y-105408571D01*
X158379285Y-105456190D01*
X158426904Y-105551428D01*
X158426904Y-105741904D01*
X158379285Y-105837142D01*
X158331666Y-105884761D01*
X158236428Y-105932380D01*
X158045952Y-105932380D01*
X157950714Y-105884761D01*
X157903095Y-105837142D01*
X157855476Y-105741904D01*
X157855476Y-105551428D01*
X157903095Y-105456190D01*
X157950714Y-105408571D01*
X158045952Y-105360952D01*
X156998333Y-105265714D02*
X156998333Y-105932380D01*
X157236428Y-104884761D02*
X157474523Y-105599047D01*
X156855476Y-105599047D01*
%TO.C,C76*%
X173807857Y-101527142D02*
X173855476Y-101574761D01*
X173998333Y-101622380D01*
X174093571Y-101622380D01*
X174236428Y-101574761D01*
X174331666Y-101479523D01*
X174379285Y-101384285D01*
X174426904Y-101193809D01*
X174426904Y-101050952D01*
X174379285Y-100860476D01*
X174331666Y-100765238D01*
X174236428Y-100670000D01*
X174093571Y-100622380D01*
X173998333Y-100622380D01*
X173855476Y-100670000D01*
X173807857Y-100717619D01*
X173474523Y-100622380D02*
X172807857Y-100622380D01*
X173236428Y-101622380D01*
X171998333Y-100622380D02*
X172188809Y-100622380D01*
X172284047Y-100670000D01*
X172331666Y-100717619D01*
X172426904Y-100860476D01*
X172474523Y-101050952D01*
X172474523Y-101431904D01*
X172426904Y-101527142D01*
X172379285Y-101574761D01*
X172284047Y-101622380D01*
X172093571Y-101622380D01*
X171998333Y-101574761D01*
X171950714Y-101527142D01*
X171903095Y-101431904D01*
X171903095Y-101193809D01*
X171950714Y-101098571D01*
X171998333Y-101050952D01*
X172093571Y-101003333D01*
X172284047Y-101003333D01*
X172379285Y-101050952D01*
X172426904Y-101098571D01*
X172474523Y-101193809D01*
%TO.C,C85*%
X158807857Y-101527142D02*
X158855476Y-101574761D01*
X158998333Y-101622380D01*
X159093571Y-101622380D01*
X159236428Y-101574761D01*
X159331666Y-101479523D01*
X159379285Y-101384285D01*
X159426904Y-101193809D01*
X159426904Y-101050952D01*
X159379285Y-100860476D01*
X159331666Y-100765238D01*
X159236428Y-100670000D01*
X159093571Y-100622380D01*
X158998333Y-100622380D01*
X158855476Y-100670000D01*
X158807857Y-100717619D01*
X158236428Y-101050952D02*
X158331666Y-101003333D01*
X158379285Y-100955714D01*
X158426904Y-100860476D01*
X158426904Y-100812857D01*
X158379285Y-100717619D01*
X158331666Y-100670000D01*
X158236428Y-100622380D01*
X158045952Y-100622380D01*
X157950714Y-100670000D01*
X157903095Y-100717619D01*
X157855476Y-100812857D01*
X157855476Y-100860476D01*
X157903095Y-100955714D01*
X157950714Y-101003333D01*
X158045952Y-101050952D01*
X158236428Y-101050952D01*
X158331666Y-101098571D01*
X158379285Y-101146190D01*
X158426904Y-101241428D01*
X158426904Y-101431904D01*
X158379285Y-101527142D01*
X158331666Y-101574761D01*
X158236428Y-101622380D01*
X158045952Y-101622380D01*
X157950714Y-101574761D01*
X157903095Y-101527142D01*
X157855476Y-101431904D01*
X157855476Y-101241428D01*
X157903095Y-101146190D01*
X157950714Y-101098571D01*
X158045952Y-101050952D01*
X156950714Y-100622380D02*
X157426904Y-100622380D01*
X157474523Y-101098571D01*
X157426904Y-101050952D01*
X157331666Y-101003333D01*
X157093571Y-101003333D01*
X156998333Y-101050952D01*
X156950714Y-101098571D01*
X156903095Y-101193809D01*
X156903095Y-101431904D01*
X156950714Y-101527142D01*
X156998333Y-101574761D01*
X157093571Y-101622380D01*
X157331666Y-101622380D01*
X157426904Y-101574761D01*
X157474523Y-101527142D01*
%TO.C,C7*%
X66666666Y-61607142D02*
X66714285Y-61654761D01*
X66857142Y-61702380D01*
X66952380Y-61702380D01*
X67095238Y-61654761D01*
X67190476Y-61559523D01*
X67238095Y-61464285D01*
X67285714Y-61273809D01*
X67285714Y-61130952D01*
X67238095Y-60940476D01*
X67190476Y-60845238D01*
X67095238Y-60750000D01*
X66952380Y-60702380D01*
X66857142Y-60702380D01*
X66714285Y-60750000D01*
X66666666Y-60797619D01*
X66333333Y-60702380D02*
X65666666Y-60702380D01*
X66095238Y-61702380D01*
%TO.C,Q7*%
X147595238Y-88297619D02*
X147690476Y-88250000D01*
X147785714Y-88154761D01*
X147928571Y-88011904D01*
X148023809Y-87964285D01*
X148119047Y-87964285D01*
X148071428Y-88202380D02*
X148166666Y-88154761D01*
X148261904Y-88059523D01*
X148309523Y-87869047D01*
X148309523Y-87535714D01*
X148261904Y-87345238D01*
X148166666Y-87250000D01*
X148071428Y-87202380D01*
X147880952Y-87202380D01*
X147785714Y-87250000D01*
X147690476Y-87345238D01*
X147642857Y-87535714D01*
X147642857Y-87869047D01*
X147690476Y-88059523D01*
X147785714Y-88154761D01*
X147880952Y-88202380D01*
X148071428Y-88202380D01*
X147309523Y-87202380D02*
X146642857Y-87202380D01*
X147071428Y-88202380D01*
%TO.C,C24*%
X67642857Y-88857142D02*
X67690476Y-88904761D01*
X67833333Y-88952380D01*
X67928571Y-88952380D01*
X68071428Y-88904761D01*
X68166666Y-88809523D01*
X68214285Y-88714285D01*
X68261904Y-88523809D01*
X68261904Y-88380952D01*
X68214285Y-88190476D01*
X68166666Y-88095238D01*
X68071428Y-88000000D01*
X67928571Y-87952380D01*
X67833333Y-87952380D01*
X67690476Y-88000000D01*
X67642857Y-88047619D01*
X67261904Y-88047619D02*
X67214285Y-88000000D01*
X67119047Y-87952380D01*
X66880952Y-87952380D01*
X66785714Y-88000000D01*
X66738095Y-88047619D01*
X66690476Y-88142857D01*
X66690476Y-88238095D01*
X66738095Y-88380952D01*
X67309523Y-88952380D01*
X66690476Y-88952380D01*
X65833333Y-88285714D02*
X65833333Y-88952380D01*
X66071428Y-87904761D02*
X66309523Y-88619047D01*
X65690476Y-88619047D01*
%TO.C,C25*%
X71392857Y-91357142D02*
X71440476Y-91404761D01*
X71583333Y-91452380D01*
X71678571Y-91452380D01*
X71821428Y-91404761D01*
X71916666Y-91309523D01*
X71964285Y-91214285D01*
X72011904Y-91023809D01*
X72011904Y-90880952D01*
X71964285Y-90690476D01*
X71916666Y-90595238D01*
X71821428Y-90500000D01*
X71678571Y-90452380D01*
X71583333Y-90452380D01*
X71440476Y-90500000D01*
X71392857Y-90547619D01*
X71011904Y-90547619D02*
X70964285Y-90500000D01*
X70869047Y-90452380D01*
X70630952Y-90452380D01*
X70535714Y-90500000D01*
X70488095Y-90547619D01*
X70440476Y-90642857D01*
X70440476Y-90738095D01*
X70488095Y-90880952D01*
X71059523Y-91452380D01*
X70440476Y-91452380D01*
X69535714Y-90452380D02*
X70011904Y-90452380D01*
X70059523Y-90928571D01*
X70011904Y-90880952D01*
X69916666Y-90833333D01*
X69678571Y-90833333D01*
X69583333Y-90880952D01*
X69535714Y-90928571D01*
X69488095Y-91023809D01*
X69488095Y-91261904D01*
X69535714Y-91357142D01*
X69583333Y-91404761D01*
X69678571Y-91452380D01*
X69916666Y-91452380D01*
X70011904Y-91404761D01*
X70059523Y-91357142D01*
%TO.C,Q6*%
X177845238Y-95297619D02*
X177940476Y-95250000D01*
X178035714Y-95154761D01*
X178178571Y-95011904D01*
X178273809Y-94964285D01*
X178369047Y-94964285D01*
X178321428Y-95202380D02*
X178416666Y-95154761D01*
X178511904Y-95059523D01*
X178559523Y-94869047D01*
X178559523Y-94535714D01*
X178511904Y-94345238D01*
X178416666Y-94250000D01*
X178321428Y-94202380D01*
X178130952Y-94202380D01*
X178035714Y-94250000D01*
X177940476Y-94345238D01*
X177892857Y-94535714D01*
X177892857Y-94869047D01*
X177940476Y-95059523D01*
X178035714Y-95154761D01*
X178130952Y-95202380D01*
X178321428Y-95202380D01*
X177035714Y-94202380D02*
X177226190Y-94202380D01*
X177321428Y-94250000D01*
X177369047Y-94297619D01*
X177464285Y-94440476D01*
X177511904Y-94630952D01*
X177511904Y-95011904D01*
X177464285Y-95107142D01*
X177416666Y-95154761D01*
X177321428Y-95202380D01*
X177130952Y-95202380D01*
X177035714Y-95154761D01*
X176988095Y-95107142D01*
X176940476Y-95011904D01*
X176940476Y-94773809D01*
X176988095Y-94678571D01*
X177035714Y-94630952D01*
X177130952Y-94583333D01*
X177321428Y-94583333D01*
X177416666Y-94630952D01*
X177464285Y-94678571D01*
X177511904Y-94773809D01*
%TO.C,R25*%
X86702380Y-85557142D02*
X86226190Y-85223809D01*
X86702380Y-84985714D02*
X85702380Y-84985714D01*
X85702380Y-85366666D01*
X85750000Y-85461904D01*
X85797619Y-85509523D01*
X85892857Y-85557142D01*
X86035714Y-85557142D01*
X86130952Y-85509523D01*
X86178571Y-85461904D01*
X86226190Y-85366666D01*
X86226190Y-84985714D01*
X85797619Y-85938095D02*
X85750000Y-85985714D01*
X85702380Y-86080952D01*
X85702380Y-86319047D01*
X85750000Y-86414285D01*
X85797619Y-86461904D01*
X85892857Y-86509523D01*
X85988095Y-86509523D01*
X86130952Y-86461904D01*
X86702380Y-85890476D01*
X86702380Y-86509523D01*
X85702380Y-87414285D02*
X85702380Y-86938095D01*
X86178571Y-86890476D01*
X86130952Y-86938095D01*
X86083333Y-87033333D01*
X86083333Y-87271428D01*
X86130952Y-87366666D01*
X86178571Y-87414285D01*
X86273809Y-87461904D01*
X86511904Y-87461904D01*
X86607142Y-87414285D01*
X86654761Y-87366666D01*
X86702380Y-87271428D01*
X86702380Y-87033333D01*
X86654761Y-86938095D01*
X86607142Y-86890476D01*
%TO.C,C82*%
X152462857Y-105877142D02*
X152510476Y-105924761D01*
X152653333Y-105972380D01*
X152748571Y-105972380D01*
X152891428Y-105924761D01*
X152986666Y-105829523D01*
X153034285Y-105734285D01*
X153081904Y-105543809D01*
X153081904Y-105400952D01*
X153034285Y-105210476D01*
X152986666Y-105115238D01*
X152891428Y-105020000D01*
X152748571Y-104972380D01*
X152653333Y-104972380D01*
X152510476Y-105020000D01*
X152462857Y-105067619D01*
X151891428Y-105400952D02*
X151986666Y-105353333D01*
X152034285Y-105305714D01*
X152081904Y-105210476D01*
X152081904Y-105162857D01*
X152034285Y-105067619D01*
X151986666Y-105020000D01*
X151891428Y-104972380D01*
X151700952Y-104972380D01*
X151605714Y-105020000D01*
X151558095Y-105067619D01*
X151510476Y-105162857D01*
X151510476Y-105210476D01*
X151558095Y-105305714D01*
X151605714Y-105353333D01*
X151700952Y-105400952D01*
X151891428Y-105400952D01*
X151986666Y-105448571D01*
X152034285Y-105496190D01*
X152081904Y-105591428D01*
X152081904Y-105781904D01*
X152034285Y-105877142D01*
X151986666Y-105924761D01*
X151891428Y-105972380D01*
X151700952Y-105972380D01*
X151605714Y-105924761D01*
X151558095Y-105877142D01*
X151510476Y-105781904D01*
X151510476Y-105591428D01*
X151558095Y-105496190D01*
X151605714Y-105448571D01*
X151700952Y-105400952D01*
X151129523Y-105067619D02*
X151081904Y-105020000D01*
X150986666Y-104972380D01*
X150748571Y-104972380D01*
X150653333Y-105020000D01*
X150605714Y-105067619D01*
X150558095Y-105162857D01*
X150558095Y-105258095D01*
X150605714Y-105400952D01*
X151177142Y-105972380D01*
X150558095Y-105972380D01*
%TO.C,C19*%
X71375357Y-84607142D02*
X71422976Y-84654761D01*
X71565833Y-84702380D01*
X71661071Y-84702380D01*
X71803928Y-84654761D01*
X71899166Y-84559523D01*
X71946785Y-84464285D01*
X71994404Y-84273809D01*
X71994404Y-84130952D01*
X71946785Y-83940476D01*
X71899166Y-83845238D01*
X71803928Y-83750000D01*
X71661071Y-83702380D01*
X71565833Y-83702380D01*
X71422976Y-83750000D01*
X71375357Y-83797619D01*
X70422976Y-84702380D02*
X70994404Y-84702380D01*
X70708690Y-84702380D02*
X70708690Y-83702380D01*
X70803928Y-83845238D01*
X70899166Y-83940476D01*
X70994404Y-83988095D01*
X69946785Y-84702380D02*
X69756309Y-84702380D01*
X69661071Y-84654761D01*
X69613452Y-84607142D01*
X69518214Y-84464285D01*
X69470595Y-84273809D01*
X69470595Y-83892857D01*
X69518214Y-83797619D01*
X69565833Y-83750000D01*
X69661071Y-83702380D01*
X69851547Y-83702380D01*
X69946785Y-83750000D01*
X69994404Y-83797619D01*
X70042023Y-83892857D01*
X70042023Y-84130952D01*
X69994404Y-84226190D01*
X69946785Y-84273809D01*
X69851547Y-84321428D01*
X69661071Y-84321428D01*
X69565833Y-84273809D01*
X69518214Y-84226190D01*
X69470595Y-84130952D01*
%TO.C,C71*%
X167457857Y-104387142D02*
X167505476Y-104434761D01*
X167648333Y-104482380D01*
X167743571Y-104482380D01*
X167886428Y-104434761D01*
X167981666Y-104339523D01*
X168029285Y-104244285D01*
X168076904Y-104053809D01*
X168076904Y-103910952D01*
X168029285Y-103720476D01*
X167981666Y-103625238D01*
X167886428Y-103530000D01*
X167743571Y-103482380D01*
X167648333Y-103482380D01*
X167505476Y-103530000D01*
X167457857Y-103577619D01*
X167124523Y-103482380D02*
X166457857Y-103482380D01*
X166886428Y-104482380D01*
X165553095Y-104482380D02*
X166124523Y-104482380D01*
X165838809Y-104482380D02*
X165838809Y-103482380D01*
X165934047Y-103625238D01*
X166029285Y-103720476D01*
X166124523Y-103768095D01*
%TO.C,C6*%
X70166666Y-58857142D02*
X70214285Y-58904761D01*
X70357142Y-58952380D01*
X70452380Y-58952380D01*
X70595238Y-58904761D01*
X70690476Y-58809523D01*
X70738095Y-58714285D01*
X70785714Y-58523809D01*
X70785714Y-58380952D01*
X70738095Y-58190476D01*
X70690476Y-58095238D01*
X70595238Y-58000000D01*
X70452380Y-57952380D01*
X70357142Y-57952380D01*
X70214285Y-58000000D01*
X70166666Y-58047619D01*
X69309523Y-57952380D02*
X69500000Y-57952380D01*
X69595238Y-58000000D01*
X69642857Y-58047619D01*
X69738095Y-58190476D01*
X69785714Y-58380952D01*
X69785714Y-58761904D01*
X69738095Y-58857142D01*
X69690476Y-58904761D01*
X69595238Y-58952380D01*
X69404761Y-58952380D01*
X69309523Y-58904761D01*
X69261904Y-58857142D01*
X69214285Y-58761904D01*
X69214285Y-58523809D01*
X69261904Y-58428571D01*
X69309523Y-58380952D01*
X69404761Y-58333333D01*
X69595238Y-58333333D01*
X69690476Y-58380952D01*
X69738095Y-58428571D01*
X69785714Y-58523809D01*
%TO.C,Q8*%
X162345238Y-95797619D02*
X162440476Y-95750000D01*
X162535714Y-95654761D01*
X162678571Y-95511904D01*
X162773809Y-95464285D01*
X162869047Y-95464285D01*
X162821428Y-95702380D02*
X162916666Y-95654761D01*
X163011904Y-95559523D01*
X163059523Y-95369047D01*
X163059523Y-95035714D01*
X163011904Y-94845238D01*
X162916666Y-94750000D01*
X162821428Y-94702380D01*
X162630952Y-94702380D01*
X162535714Y-94750000D01*
X162440476Y-94845238D01*
X162392857Y-95035714D01*
X162392857Y-95369047D01*
X162440476Y-95559523D01*
X162535714Y-95654761D01*
X162630952Y-95702380D01*
X162821428Y-95702380D01*
X161821428Y-95130952D02*
X161916666Y-95083333D01*
X161964285Y-95035714D01*
X162011904Y-94940476D01*
X162011904Y-94892857D01*
X161964285Y-94797619D01*
X161916666Y-94750000D01*
X161821428Y-94702380D01*
X161630952Y-94702380D01*
X161535714Y-94750000D01*
X161488095Y-94797619D01*
X161440476Y-94892857D01*
X161440476Y-94940476D01*
X161488095Y-95035714D01*
X161535714Y-95083333D01*
X161630952Y-95130952D01*
X161821428Y-95130952D01*
X161916666Y-95178571D01*
X161964285Y-95226190D01*
X162011904Y-95321428D01*
X162011904Y-95511904D01*
X161964285Y-95607142D01*
X161916666Y-95654761D01*
X161821428Y-95702380D01*
X161630952Y-95702380D01*
X161535714Y-95654761D01*
X161488095Y-95607142D01*
X161440476Y-95511904D01*
X161440476Y-95321428D01*
X161488095Y-95226190D01*
X161535714Y-95178571D01*
X161630952Y-95130952D01*
%TO.C,Q3*%
X79595238Y-70297619D02*
X79690476Y-70250000D01*
X79785714Y-70154761D01*
X79928571Y-70011904D01*
X80023809Y-69964285D01*
X80119047Y-69964285D01*
X80071428Y-70202380D02*
X80166666Y-70154761D01*
X80261904Y-70059523D01*
X80309523Y-69869047D01*
X80309523Y-69535714D01*
X80261904Y-69345238D01*
X80166666Y-69250000D01*
X80071428Y-69202380D01*
X79880952Y-69202380D01*
X79785714Y-69250000D01*
X79690476Y-69345238D01*
X79642857Y-69535714D01*
X79642857Y-69869047D01*
X79690476Y-70059523D01*
X79785714Y-70154761D01*
X79880952Y-70202380D01*
X80071428Y-70202380D01*
X79309523Y-69202380D02*
X78690476Y-69202380D01*
X79023809Y-69583333D01*
X78880952Y-69583333D01*
X78785714Y-69630952D01*
X78738095Y-69678571D01*
X78690476Y-69773809D01*
X78690476Y-70011904D01*
X78738095Y-70107142D01*
X78785714Y-70154761D01*
X78880952Y-70202380D01*
X79166666Y-70202380D01*
X79261904Y-70154761D01*
X79309523Y-70107142D01*
%TO.C,Q4*%
X82345238Y-80547619D02*
X82440476Y-80500000D01*
X82535714Y-80404761D01*
X82678571Y-80261904D01*
X82773809Y-80214285D01*
X82869047Y-80214285D01*
X82821428Y-80452380D02*
X82916666Y-80404761D01*
X83011904Y-80309523D01*
X83059523Y-80119047D01*
X83059523Y-79785714D01*
X83011904Y-79595238D01*
X82916666Y-79500000D01*
X82821428Y-79452380D01*
X82630952Y-79452380D01*
X82535714Y-79500000D01*
X82440476Y-79595238D01*
X82392857Y-79785714D01*
X82392857Y-80119047D01*
X82440476Y-80309523D01*
X82535714Y-80404761D01*
X82630952Y-80452380D01*
X82821428Y-80452380D01*
X81535714Y-79785714D02*
X81535714Y-80452380D01*
X81773809Y-79404761D02*
X82011904Y-80119047D01*
X81392857Y-80119047D01*
%TO.C,C9*%
X70416666Y-66357142D02*
X70464285Y-66404761D01*
X70607142Y-66452380D01*
X70702380Y-66452380D01*
X70845238Y-66404761D01*
X70940476Y-66309523D01*
X70988095Y-66214285D01*
X71035714Y-66023809D01*
X71035714Y-65880952D01*
X70988095Y-65690476D01*
X70940476Y-65595238D01*
X70845238Y-65500000D01*
X70702380Y-65452380D01*
X70607142Y-65452380D01*
X70464285Y-65500000D01*
X70416666Y-65547619D01*
X69940476Y-66452380D02*
X69750000Y-66452380D01*
X69654761Y-66404761D01*
X69607142Y-66357142D01*
X69511904Y-66214285D01*
X69464285Y-66023809D01*
X69464285Y-65642857D01*
X69511904Y-65547619D01*
X69559523Y-65500000D01*
X69654761Y-65452380D01*
X69845238Y-65452380D01*
X69940476Y-65500000D01*
X69988095Y-65547619D01*
X70035714Y-65642857D01*
X70035714Y-65880952D01*
X69988095Y-65976190D01*
X69940476Y-66023809D01*
X69845238Y-66071428D01*
X69654761Y-66071428D01*
X69559523Y-66023809D01*
X69511904Y-65976190D01*
X69464285Y-65880952D01*
%TO.C,C23*%
X67642857Y-87107142D02*
X67690476Y-87154761D01*
X67833333Y-87202380D01*
X67928571Y-87202380D01*
X68071428Y-87154761D01*
X68166666Y-87059523D01*
X68214285Y-86964285D01*
X68261904Y-86773809D01*
X68261904Y-86630952D01*
X68214285Y-86440476D01*
X68166666Y-86345238D01*
X68071428Y-86250000D01*
X67928571Y-86202380D01*
X67833333Y-86202380D01*
X67690476Y-86250000D01*
X67642857Y-86297619D01*
X67261904Y-86297619D02*
X67214285Y-86250000D01*
X67119047Y-86202380D01*
X66880952Y-86202380D01*
X66785714Y-86250000D01*
X66738095Y-86297619D01*
X66690476Y-86392857D01*
X66690476Y-86488095D01*
X66738095Y-86630952D01*
X67309523Y-87202380D01*
X66690476Y-87202380D01*
X66357142Y-86202380D02*
X65738095Y-86202380D01*
X66071428Y-86583333D01*
X65928571Y-86583333D01*
X65833333Y-86630952D01*
X65785714Y-86678571D01*
X65738095Y-86773809D01*
X65738095Y-87011904D01*
X65785714Y-87107142D01*
X65833333Y-87154761D01*
X65928571Y-87202380D01*
X66214285Y-87202380D01*
X66309523Y-87154761D01*
X66357142Y-87107142D01*
%TO.C,C28*%
X167457857Y-105877142D02*
X167505476Y-105924761D01*
X167648333Y-105972380D01*
X167743571Y-105972380D01*
X167886428Y-105924761D01*
X167981666Y-105829523D01*
X168029285Y-105734285D01*
X168076904Y-105543809D01*
X168076904Y-105400952D01*
X168029285Y-105210476D01*
X167981666Y-105115238D01*
X167886428Y-105020000D01*
X167743571Y-104972380D01*
X167648333Y-104972380D01*
X167505476Y-105020000D01*
X167457857Y-105067619D01*
X167076904Y-105067619D02*
X167029285Y-105020000D01*
X166934047Y-104972380D01*
X166695952Y-104972380D01*
X166600714Y-105020000D01*
X166553095Y-105067619D01*
X166505476Y-105162857D01*
X166505476Y-105258095D01*
X166553095Y-105400952D01*
X167124523Y-105972380D01*
X166505476Y-105972380D01*
X165934047Y-105400952D02*
X166029285Y-105353333D01*
X166076904Y-105305714D01*
X166124523Y-105210476D01*
X166124523Y-105162857D01*
X166076904Y-105067619D01*
X166029285Y-105020000D01*
X165934047Y-104972380D01*
X165743571Y-104972380D01*
X165648333Y-105020000D01*
X165600714Y-105067619D01*
X165553095Y-105162857D01*
X165553095Y-105210476D01*
X165600714Y-105305714D01*
X165648333Y-105353333D01*
X165743571Y-105400952D01*
X165934047Y-105400952D01*
X166029285Y-105448571D01*
X166076904Y-105496190D01*
X166124523Y-105591428D01*
X166124523Y-105781904D01*
X166076904Y-105877142D01*
X166029285Y-105924761D01*
X165934047Y-105972380D01*
X165743571Y-105972380D01*
X165648333Y-105924761D01*
X165600714Y-105877142D01*
X165553095Y-105781904D01*
X165553095Y-105591428D01*
X165600714Y-105496190D01*
X165648333Y-105448571D01*
X165743571Y-105400952D01*
%TO.C,Q1*%
X83345238Y-56047619D02*
X83440476Y-56000000D01*
X83535714Y-55904761D01*
X83678571Y-55761904D01*
X83773809Y-55714285D01*
X83869047Y-55714285D01*
X83821428Y-55952380D02*
X83916666Y-55904761D01*
X84011904Y-55809523D01*
X84059523Y-55619047D01*
X84059523Y-55285714D01*
X84011904Y-55095238D01*
X83916666Y-55000000D01*
X83821428Y-54952380D01*
X83630952Y-54952380D01*
X83535714Y-55000000D01*
X83440476Y-55095238D01*
X83392857Y-55285714D01*
X83392857Y-55619047D01*
X83440476Y-55809523D01*
X83535714Y-55904761D01*
X83630952Y-55952380D01*
X83821428Y-55952380D01*
X82440476Y-55952380D02*
X83011904Y-55952380D01*
X82726190Y-55952380D02*
X82726190Y-54952380D01*
X82821428Y-55095238D01*
X82916666Y-55190476D01*
X83011904Y-55238095D01*
D11*
%TO.C,Q2*%
X173840000Y-93297500D02*
X173840000Y-88656500D01*
X163600000Y-93297500D02*
X173840000Y-93297500D01*
X163600000Y-91787500D02*
X173840000Y-91787500D01*
X170571000Y-93297500D02*
X170571000Y-91787500D01*
X163600000Y-93297500D02*
X163600000Y-88656500D01*
X163600000Y-88656500D02*
X173840000Y-88656500D01*
X166870000Y-93297500D02*
X166870000Y-91787500D01*
%TO.C,C8*%
X67617500Y-65504420D02*
X67617500Y-65785580D01*
X66597500Y-65504420D02*
X66597500Y-65785580D01*
%TO.C,R26*%
X85235000Y-82372936D02*
X85235000Y-82827064D01*
X83765000Y-82372936D02*
X83765000Y-82827064D01*
%TO.C,C72*%
X173036324Y-103590000D02*
X173317484Y-103590000D01*
X173036324Y-104610000D02*
X173317484Y-104610000D01*
%TO.C,Q5*%
X76406500Y-93865000D02*
X76406500Y-83625000D01*
X81047500Y-86894000D02*
X79537500Y-86894000D01*
X81047500Y-93865000D02*
X76406500Y-93865000D01*
X79537500Y-93865000D02*
X79537500Y-83625000D01*
X81047500Y-83625000D02*
X76406500Y-83625000D01*
X81047500Y-93865000D02*
X81047500Y-83625000D01*
X81047500Y-90595000D02*
X79537500Y-90595000D01*
%TO.C,R14*%
X94427064Y-72290000D02*
X90072936Y-72290000D01*
X94427064Y-75710000D02*
X90072936Y-75710000D01*
%TO.C,C83*%
X151955580Y-103110000D02*
X151674420Y-103110000D01*
X151955580Y-102090000D02*
X151674420Y-102090000D01*
%TO.C,R24*%
X83765000Y-89572936D02*
X83765000Y-90027064D01*
X85235000Y-89572936D02*
X85235000Y-90027064D01*
%TO.C,C84*%
X158024420Y-103540000D02*
X158305580Y-103540000D01*
X158024420Y-104560000D02*
X158305580Y-104560000D01*
%TO.C,C76*%
X173305580Y-102090000D02*
X173024420Y-102090000D01*
X173305580Y-103110000D02*
X173024420Y-103110000D01*
%TO.C,C85*%
X158305580Y-103110000D02*
X158024420Y-103110000D01*
X158305580Y-102090000D02*
X158024420Y-102090000D01*
%TO.C,C7*%
X66597500Y-59159420D02*
X66597500Y-59440580D01*
X67617500Y-59159420D02*
X67617500Y-59440580D01*
%TO.C,Q7*%
X155571000Y-93297500D02*
X155571000Y-91787500D01*
X151870000Y-93297500D02*
X151870000Y-91787500D01*
X158840000Y-93297500D02*
X158840000Y-88656500D01*
X148600000Y-93297500D02*
X158840000Y-93297500D01*
X148600000Y-88656500D02*
X158840000Y-88656500D01*
X148600000Y-93297500D02*
X148600000Y-88656500D01*
X148600000Y-91787500D02*
X158840000Y-91787500D01*
%TO.C,C24*%
X67617500Y-90785580D02*
X67617500Y-90504420D01*
X66597500Y-90785580D02*
X66597500Y-90504420D01*
%TO.C,C25*%
X69057500Y-90504420D02*
X69057500Y-90785580D01*
X68037500Y-90504420D02*
X68037500Y-90785580D01*
%TO.C,Q6*%
X169409000Y-89952500D02*
X169409000Y-91462500D01*
X176380000Y-89952500D02*
X166140000Y-89952500D01*
X166140000Y-89952500D02*
X166140000Y-94593500D01*
X176380000Y-91462500D02*
X166140000Y-91462500D01*
X176380000Y-94593500D02*
X166140000Y-94593500D01*
X176380000Y-89952500D02*
X176380000Y-94593500D01*
X173110000Y-89952500D02*
X173110000Y-91462500D01*
%TO.C,R25*%
X85235000Y-85972936D02*
X85235000Y-86427064D01*
X83765000Y-85972936D02*
X83765000Y-86427064D01*
%TO.C,C82*%
X151679420Y-103580000D02*
X151960580Y-103580000D01*
X151679420Y-104600000D02*
X151960580Y-104600000D01*
%TO.C,C19*%
X69040000Y-84440580D02*
X69040000Y-84159420D01*
X68020000Y-84440580D02*
X68020000Y-84159420D01*
%TO.C,C71*%
X166674420Y-102090000D02*
X166955580Y-102090000D01*
X166674420Y-103110000D02*
X166955580Y-103110000D01*
%TO.C,C6*%
X69057500Y-59159420D02*
X69057500Y-59440580D01*
X68037500Y-59159420D02*
X68037500Y-59440580D01*
%TO.C,Q8*%
X161380000Y-89952500D02*
X151140000Y-89952500D01*
X154409000Y-89952500D02*
X154409000Y-91462500D01*
X161380000Y-94593500D02*
X151140000Y-94593500D01*
X158110000Y-89952500D02*
X158110000Y-91462500D01*
X161380000Y-91462500D02*
X151140000Y-91462500D01*
X151140000Y-89952500D02*
X151140000Y-94593500D01*
X161380000Y-89952500D02*
X161380000Y-94593500D01*
%TO.C,Q3*%
X81047500Y-65595000D02*
X79537500Y-65595000D01*
X81047500Y-61894000D02*
X79537500Y-61894000D01*
X79537500Y-68865000D02*
X79537500Y-58625000D01*
X81047500Y-68865000D02*
X81047500Y-58625000D01*
X81047500Y-68865000D02*
X76406500Y-68865000D01*
X81047500Y-58625000D02*
X76406500Y-58625000D01*
X76406500Y-68865000D02*
X76406500Y-58625000D01*
%TO.C,Q4*%
X79212500Y-81085000D02*
X79212500Y-91325000D01*
X77702500Y-81085000D02*
X77702500Y-91325000D01*
X77702500Y-91325000D02*
X82343500Y-91325000D01*
X82343500Y-81085000D02*
X82343500Y-91325000D01*
X77702500Y-88056000D02*
X79212500Y-88056000D01*
X77702500Y-84355000D02*
X79212500Y-84355000D01*
X77702500Y-81085000D02*
X82343500Y-81085000D01*
%TO.C,C9*%
X69057500Y-65785580D02*
X69057500Y-65504420D01*
X68037500Y-65785580D02*
X68037500Y-65504420D01*
%TO.C,C23*%
X67617500Y-84159420D02*
X67617500Y-84440580D01*
X66597500Y-84159420D02*
X66597500Y-84440580D01*
%TO.C,C28*%
X166674420Y-103580000D02*
X166955580Y-103580000D01*
X166674420Y-104600000D02*
X166955580Y-104600000D01*
%TO.C,Q1*%
X77702500Y-59355000D02*
X79212500Y-59355000D01*
X77702500Y-56085000D02*
X82343500Y-56085000D01*
X77702500Y-66325000D02*
X82343500Y-66325000D01*
X77702500Y-63056000D02*
X79212500Y-63056000D01*
X79212500Y-56085000D02*
X79212500Y-66325000D01*
X77702500Y-56085000D02*
X77702500Y-66325000D01*
X82343500Y-56085000D02*
X82343500Y-66325000D01*
%TD*%
M02*
