%TF.GenerationSoftware,KiCad,Pcbnew,(6.0.9)*%
%TF.CreationDate,2023-07-13T02:30:16+01:00*%
%TF.ProjectId,Resonant_Converter_V1,5265736f-6e61-46e7-945f-436f6e766572,rev?*%
%TF.SameCoordinates,Original*%
%TF.FileFunction,Soldermask,Bot*%
%TF.FilePolarity,Negative*%
%FSLAX46Y46*%
G04 Gerber Fmt 4.6, Leading zero omitted, Abs format (unit mm)*
G04 Created by KiCad (PCBNEW (6.0.9)) date 2023-07-13 02:30:16*
%MOMM*%
%LPD*%
G01*
G04 APERTURE LIST*
G04 Aperture macros list*
%AMRoundRect*
0 Rectangle with rounded corners*
0 $1 Rounding radius*
0 $2 $3 $4 $5 $6 $7 $8 $9 X,Y pos of 4 corners*
0 Add a 4 corners polygon primitive as box body*
4,1,4,$2,$3,$4,$5,$6,$7,$8,$9,$2,$3,0*
0 Add four circle primitives for the rounded corners*
1,1,$1+$1,$2,$3*
1,1,$1+$1,$4,$5*
1,1,$1+$1,$6,$7*
1,1,$1+$1,$8,$9*
0 Add four rect primitives between the rounded corners*
20,1,$1+$1,$2,$3,$4,$5,0*
20,1,$1+$1,$4,$5,$6,$7,0*
20,1,$1+$1,$6,$7,$8,$9,0*
20,1,$1+$1,$8,$9,$2,$3,0*%
G04 Aperture macros list end*
%ADD10C,2.000000*%
%ADD11C,4.000000*%
%ADD12R,4.000000X4.000000*%
%ADD13C,3.600000*%
%ADD14R,3.000000X3.000000*%
%ADD15C,3.000000*%
%ADD16C,3.200000*%
%ADD17R,2.025000X2.025000*%
%ADD18C,2.025000*%
%ADD19R,2.400000X2.400000*%
%ADD20C,2.400000*%
%ADD21R,2.800000X2.800000*%
%ADD22O,2.800000X2.800000*%
%ADD23R,1.000000X1.000000*%
%ADD24O,1.000000X1.000000*%
%ADD25R,1.905000X2.000000*%
%ADD26O,1.905000X2.000000*%
%ADD27RoundRect,0.225000X-0.250000X0.225000X-0.250000X-0.225000X0.250000X-0.225000X0.250000X0.225000X0*%
%ADD28RoundRect,0.250000X-0.450000X0.262500X-0.450000X-0.262500X0.450000X-0.262500X0.450000X0.262500X0*%
%ADD29RoundRect,0.225000X-0.225000X-0.250000X0.225000X-0.250000X0.225000X0.250000X-0.225000X0.250000X0*%
%ADD30R,2.000000X1.905000*%
%ADD31O,2.000000X1.905000*%
%ADD32RoundRect,0.250000X0.362500X1.425000X-0.362500X1.425000X-0.362500X-1.425000X0.362500X-1.425000X0*%
%ADD33RoundRect,0.225000X0.225000X0.250000X-0.225000X0.250000X-0.225000X-0.250000X0.225000X-0.250000X0*%
%ADD34RoundRect,0.225000X0.250000X-0.225000X0.250000X0.225000X-0.250000X0.225000X-0.250000X-0.225000X0*%
G04 APERTURE END LIST*
D10*
%TO.C,C51*%
X147245000Y-72600000D03*
X154745000Y-72600000D03*
%TD*%
%TO.C,C50*%
X173700000Y-72600000D03*
X166200000Y-72600000D03*
%TD*%
%TO.C,C49*%
X166200000Y-84000000D03*
X173700000Y-84000000D03*
%TD*%
%TO.C,C20*%
X154745000Y-84000000D03*
X147245000Y-84000000D03*
%TD*%
D11*
%TO.C,C32*%
X114000000Y-45000000D03*
D12*
X114000000Y-35000000D03*
%TD*%
D13*
%TO.C,L1*%
X160500000Y-54000000D03*
X160500000Y-65430000D03*
%TD*%
D14*
%TO.C,J3*%
X93000000Y-31250000D03*
D15*
X87920000Y-31250000D03*
%TD*%
D12*
%TO.C,C54*%
X67000000Y-35144630D03*
D11*
X67000000Y-45144630D03*
%TD*%
D13*
%TO.C,L2*%
X100750000Y-63750000D03*
X89320000Y-63750000D03*
%TD*%
D16*
%TO.C,H2*%
X179750000Y-121750000D03*
%TD*%
D10*
%TO.C,C22*%
X102750000Y-82500000D03*
X102750000Y-92500000D03*
%TD*%
D16*
%TO.C,H3*%
X53250000Y-30500000D03*
%TD*%
D17*
%TO.C,U8*%
X114435000Y-58470000D03*
D18*
X114435000Y-63550000D03*
X114435000Y-68630000D03*
X114435000Y-73710000D03*
X114435000Y-78790000D03*
X114435000Y-83870000D03*
X114435000Y-88950000D03*
X114435000Y-94030000D03*
X139835000Y-94030000D03*
X139835000Y-88950000D03*
X139835000Y-83870000D03*
X139835000Y-78790000D03*
X139835000Y-73710000D03*
X139835000Y-68630000D03*
X139835000Y-63550000D03*
X139835000Y-58470000D03*
%TD*%
D19*
%TO.C,C41*%
X171000000Y-37500000D03*
D20*
X171000000Y-45000000D03*
%TD*%
D10*
%TO.C,C21*%
X149000000Y-39750000D03*
X159000000Y-39750000D03*
%TD*%
%TO.C,C48*%
X179750000Y-102250000D03*
X179750000Y-92250000D03*
%TD*%
%TO.C,C5*%
X149000000Y-47000000D03*
X159000000Y-47000000D03*
%TD*%
D21*
%TO.C,D2*%
X146000000Y-91670000D03*
D22*
X146000000Y-96750000D03*
%TD*%
D19*
%TO.C,C53*%
X137000000Y-37500000D03*
D20*
X137000000Y-45000000D03*
%TD*%
D10*
%TO.C,C52*%
X90750000Y-82500000D03*
X90750000Y-92500000D03*
%TD*%
%TO.C,C33*%
X95500000Y-39750000D03*
X85500000Y-39750000D03*
%TD*%
D23*
%TO.C,J5*%
X113000000Y-122750000D03*
D24*
X111730000Y-122750000D03*
%TD*%
D23*
%TO.C,J4*%
X118500000Y-105300000D03*
D24*
X117230000Y-105300000D03*
X115960000Y-105300000D03*
X114690000Y-105300000D03*
X113420000Y-105300000D03*
%TD*%
D16*
%TO.C,H4*%
X179750000Y-30500000D03*
%TD*%
D14*
%TO.C,J1*%
X156540000Y-31250000D03*
D15*
X151460000Y-31250000D03*
%TD*%
D16*
%TO.C,H1*%
X53250000Y-121750000D03*
%TD*%
D25*
%TO.C,Q2*%
X166180000Y-90027500D03*
D26*
X168720000Y-90027500D03*
X171260000Y-90027500D03*
%TD*%
D27*
%TO.C,C8*%
X67107500Y-64870000D03*
X67107500Y-66420000D03*
%TD*%
D28*
%TO.C,R26*%
X84500000Y-81687500D03*
X84500000Y-83512500D03*
%TD*%
D29*
%TO.C,C72*%
X172401904Y-104100000D03*
X173951904Y-104100000D03*
%TD*%
D30*
%TO.C,Q5*%
X77777500Y-91285000D03*
D31*
X77777500Y-88745000D03*
X77777500Y-86205000D03*
%TD*%
D32*
%TO.C,R14*%
X95212500Y-74000000D03*
X89287500Y-74000000D03*
%TD*%
D33*
%TO.C,C83*%
X152590000Y-102600000D03*
X151040000Y-102600000D03*
%TD*%
D28*
%TO.C,R24*%
X84500000Y-88887500D03*
X84500000Y-90712500D03*
%TD*%
D29*
%TO.C,C84*%
X157390000Y-104050000D03*
X158940000Y-104050000D03*
%TD*%
D33*
%TO.C,C76*%
X173940000Y-102600000D03*
X172390000Y-102600000D03*
%TD*%
%TO.C,C85*%
X157390000Y-102600000D03*
X158940000Y-102600000D03*
%TD*%
D27*
%TO.C,C7*%
X67107500Y-58525000D03*
X67107500Y-60075000D03*
%TD*%
D25*
%TO.C,Q7*%
X151180000Y-90027500D03*
D26*
X153720000Y-90027500D03*
X156260000Y-90027500D03*
%TD*%
D34*
%TO.C,C24*%
X67107500Y-91420000D03*
X67107500Y-89870000D03*
%TD*%
D27*
%TO.C,C25*%
X68547500Y-89870000D03*
X68547500Y-91420000D03*
%TD*%
D25*
%TO.C,Q6*%
X173800000Y-93222500D03*
D26*
X171260000Y-93222500D03*
X168720000Y-93222500D03*
%TD*%
D28*
%TO.C,R25*%
X84500000Y-85287500D03*
X84500000Y-87112500D03*
%TD*%
D29*
%TO.C,C82*%
X151045000Y-104090000D03*
X152595000Y-104090000D03*
%TD*%
D34*
%TO.C,C19*%
X68530000Y-85075000D03*
X68530000Y-83525000D03*
%TD*%
D29*
%TO.C,C71*%
X166040000Y-102600000D03*
X167590000Y-102600000D03*
%TD*%
D27*
%TO.C,C6*%
X68547500Y-58525000D03*
X68547500Y-60075000D03*
%TD*%
D25*
%TO.C,Q8*%
X158800000Y-93222500D03*
D26*
X156260000Y-93222500D03*
X153720000Y-93222500D03*
%TD*%
D30*
%TO.C,Q3*%
X77777500Y-66285000D03*
D31*
X77777500Y-63745000D03*
X77777500Y-61205000D03*
%TD*%
D30*
%TO.C,Q4*%
X80972500Y-83665000D03*
D31*
X80972500Y-86205000D03*
X80972500Y-88745000D03*
%TD*%
D34*
%TO.C,C9*%
X68547500Y-66420000D03*
X68547500Y-64870000D03*
%TD*%
D27*
%TO.C,C23*%
X67107500Y-83525000D03*
X67107500Y-85075000D03*
%TD*%
D29*
%TO.C,C28*%
X166040000Y-104090000D03*
X167590000Y-104090000D03*
%TD*%
D30*
%TO.C,Q1*%
X80972500Y-58665000D03*
D31*
X80972500Y-61205000D03*
X80972500Y-63745000D03*
%TD*%
M02*
