%TF.GenerationSoftware,KiCad,Pcbnew,(6.0.9)*%
%TF.CreationDate,2023-07-13T02:30:16+01:00*%
%TF.ProjectId,Resonant_Converter_V1,5265736f-6e61-46e7-945f-436f6e766572,rev?*%
%TF.SameCoordinates,Original*%
%TF.FileFunction,Soldermask,Top*%
%TF.FilePolarity,Negative*%
%FSLAX46Y46*%
G04 Gerber Fmt 4.6, Leading zero omitted, Abs format (unit mm)*
G04 Created by KiCad (PCBNEW (6.0.9)) date 2023-07-13 02:30:16*
%MOMM*%
%LPD*%
G01*
G04 APERTURE LIST*
G04 Aperture macros list*
%AMRoundRect*
0 Rectangle with rounded corners*
0 $1 Rounding radius*
0 $2 $3 $4 $5 $6 $7 $8 $9 X,Y pos of 4 corners*
0 Add a 4 corners polygon primitive as box body*
4,1,4,$2,$3,$4,$5,$6,$7,$8,$9,$2,$3,0*
0 Add four circle primitives for the rounded corners*
1,1,$1+$1,$2,$3*
1,1,$1+$1,$4,$5*
1,1,$1+$1,$6,$7*
1,1,$1+$1,$8,$9*
0 Add four rect primitives between the rounded corners*
20,1,$1+$1,$2,$3,$4,$5,0*
20,1,$1+$1,$4,$5,$6,$7,0*
20,1,$1+$1,$6,$7,$8,$9,0*
20,1,$1+$1,$8,$9,$2,$3,0*%
G04 Aperture macros list end*
%ADD10RoundRect,0.200000X-0.200000X-0.275000X0.200000X-0.275000X0.200000X0.275000X-0.200000X0.275000X0*%
%ADD11R,1.000000X2.850000*%
%ADD12R,5.550000X5.950000*%
%ADD13RoundRect,0.225000X-0.225000X-0.250000X0.225000X-0.250000X0.225000X0.250000X-0.225000X0.250000X0*%
%ADD14R,1.500000X2.000000*%
%ADD15R,3.800000X2.000000*%
%ADD16RoundRect,0.250000X0.262500X0.450000X-0.262500X0.450000X-0.262500X-0.450000X0.262500X-0.450000X0*%
%ADD17C,2.000000*%
%ADD18RoundRect,0.225000X0.250000X-0.225000X0.250000X0.225000X-0.250000X0.225000X-0.250000X-0.225000X0*%
%ADD19RoundRect,0.225000X0.225000X0.250000X-0.225000X0.250000X-0.225000X-0.250000X0.225000X-0.250000X0*%
%ADD20RoundRect,0.200000X-0.275000X0.200000X-0.275000X-0.200000X0.275000X-0.200000X0.275000X0.200000X0*%
%ADD21RoundRect,0.225000X-0.250000X0.225000X-0.250000X-0.225000X0.250000X-0.225000X0.250000X0.225000X0*%
%ADD22RoundRect,0.200000X0.275000X-0.200000X0.275000X0.200000X-0.275000X0.200000X-0.275000X-0.200000X0*%
%ADD23C,4.000000*%
%ADD24R,4.000000X4.000000*%
%ADD25RoundRect,0.250000X-0.262500X-0.450000X0.262500X-0.450000X0.262500X0.450000X-0.262500X0.450000X0*%
%ADD26C,3.600000*%
%ADD27R,3.000000X3.000000*%
%ADD28C,3.000000*%
%ADD29RoundRect,0.200000X0.200000X0.275000X-0.200000X0.275000X-0.200000X-0.275000X0.200000X-0.275000X0*%
%ADD30C,3.200000*%
%ADD31RoundRect,0.150000X0.150000X-0.875000X0.150000X0.875000X-0.150000X0.875000X-0.150000X-0.875000X0*%
%ADD32R,2.025000X2.025000*%
%ADD33C,2.025000*%
%ADD34R,1.100000X2.000000*%
%ADD35R,0.800000X0.800000*%
%ADD36RoundRect,0.150000X-0.875000X-0.150000X0.875000X-0.150000X0.875000X0.150000X-0.875000X0.150000X0*%
%ADD37RoundRect,0.250000X-0.450000X0.262500X-0.450000X-0.262500X0.450000X-0.262500X0.450000X0.262500X0*%
%ADD38R,2.400000X2.400000*%
%ADD39C,2.400000*%
%ADD40R,2.000000X1.100000*%
%ADD41RoundRect,0.250000X-0.250000X-0.475000X0.250000X-0.475000X0.250000X0.475000X-0.250000X0.475000X0*%
%ADD42R,1.800000X2.500000*%
%ADD43R,0.900000X0.800000*%
%ADD44R,0.650000X1.850000*%
%ADD45R,2.800000X2.800000*%
%ADD46O,2.800000X2.800000*%
%ADD47RoundRect,0.075000X-0.700000X-0.075000X0.700000X-0.075000X0.700000X0.075000X-0.700000X0.075000X0*%
%ADD48RoundRect,0.075000X-0.075000X-0.700000X0.075000X-0.700000X0.075000X0.700000X-0.075000X0.700000X0*%
%ADD49R,1.200000X0.600000*%
%ADD50R,1.350000X0.600000*%
%ADD51R,2.500000X1.800000*%
%ADD52R,1.000000X1.000000*%
%ADD53O,1.000000X1.000000*%
%ADD54RoundRect,0.218750X-0.218750X-0.256250X0.218750X-0.256250X0.218750X0.256250X-0.218750X0.256250X0*%
%ADD55R,3.100000X1.900000*%
%ADD56R,0.650000X1.525000*%
%ADD57R,1.120000X0.960000*%
%ADD58R,1.905000X2.000000*%
%ADD59O,1.905000X2.000000*%
%ADD60R,2.000000X1.905000*%
%ADD61O,2.000000X1.905000*%
G04 APERTURE END LIST*
D10*
%TO.C,R62*%
X50775000Y-78200000D03*
X52425000Y-78200000D03*
%TD*%
D11*
%TO.C,IC1*%
X143290000Y-103500000D03*
X141000000Y-103500000D03*
X138710000Y-103500000D03*
D12*
X141000000Y-110250000D03*
%TD*%
D13*
%TO.C,C55*%
X56825000Y-118900000D03*
X58375000Y-118900000D03*
%TD*%
%TO.C,C47*%
X53775000Y-108250000D03*
X52225000Y-108250000D03*
%TD*%
D14*
%TO.C,U3*%
X51950000Y-116800000D03*
D15*
X54250000Y-110500000D03*
D14*
X54250000Y-116800000D03*
X56550000Y-116800000D03*
%TD*%
D16*
%TO.C,R61*%
X62162500Y-123000000D03*
X60337500Y-123000000D03*
%TD*%
%TO.C,R60*%
X65662500Y-123000000D03*
X63837500Y-123000000D03*
%TD*%
D17*
%TO.C,C51*%
X147245000Y-72600000D03*
X154745000Y-72600000D03*
%TD*%
%TO.C,C50*%
X173700000Y-72600000D03*
X166200000Y-72600000D03*
%TD*%
%TO.C,C49*%
X166200000Y-84000000D03*
X173700000Y-84000000D03*
%TD*%
%TO.C,C20*%
X154745000Y-84000000D03*
X147245000Y-84000000D03*
%TD*%
D18*
%TO.C,C38*%
X96500000Y-99025000D03*
X96500000Y-97475000D03*
%TD*%
D10*
%TO.C,R47*%
X171520000Y-97722500D03*
X173170000Y-97722500D03*
%TD*%
D19*
%TO.C,C80*%
X174765000Y-116500000D03*
X173215000Y-116500000D03*
%TD*%
D20*
%TO.C,R43*%
X73277500Y-89005000D03*
X73277500Y-90655000D03*
%TD*%
D21*
%TO.C,C45*%
X94150000Y-111575000D03*
X94150000Y-113125000D03*
%TD*%
D22*
%TO.C,R7*%
X165265000Y-101025000D03*
X165265000Y-99375000D03*
%TD*%
D10*
%TO.C,R55*%
X140665000Y-116500000D03*
X142315000Y-116500000D03*
%TD*%
D19*
%TO.C,C89*%
X159765000Y-116500000D03*
X158215000Y-116500000D03*
%TD*%
%TO.C,C81*%
X154225000Y-114700000D03*
X152675000Y-114700000D03*
%TD*%
D23*
%TO.C,C32*%
X114000000Y-45000000D03*
D24*
X114000000Y-35000000D03*
%TD*%
D25*
%TO.C,R8*%
X131087500Y-100250000D03*
X132912500Y-100250000D03*
%TD*%
D19*
%TO.C,C17*%
X105275000Y-108700000D03*
X103725000Y-108700000D03*
%TD*%
D14*
%TO.C,U4*%
X134500000Y-112700000D03*
D15*
X132200000Y-119000000D03*
D14*
X132200000Y-112700000D03*
X129900000Y-112700000D03*
%TD*%
D10*
%TO.C,R58*%
X156520000Y-97722500D03*
X158170000Y-97722500D03*
%TD*%
D26*
%TO.C,L1*%
X160500000Y-54000000D03*
X160500000Y-65430000D03*
%TD*%
D19*
%TO.C,C40*%
X125945000Y-106950000D03*
X124395000Y-106950000D03*
%TD*%
D27*
%TO.C,J3*%
X93000000Y-31250000D03*
D28*
X87920000Y-31250000D03*
%TD*%
D24*
%TO.C,C54*%
X67000000Y-35144630D03*
D23*
X67000000Y-45144630D03*
%TD*%
D18*
%TO.C,C4*%
X106250000Y-116525000D03*
X106250000Y-114975000D03*
%TD*%
%TO.C,C11*%
X54750000Y-67250000D03*
X54750000Y-65700000D03*
%TD*%
D29*
%TO.C,R29*%
X78325000Y-97000000D03*
X76675000Y-97000000D03*
%TD*%
D26*
%TO.C,L2*%
X100750000Y-63750000D03*
X89320000Y-63750000D03*
%TD*%
D30*
%TO.C,H2*%
X179750000Y-121750000D03*
%TD*%
D19*
%TO.C,C15*%
X54775000Y-59250000D03*
X53225000Y-59250000D03*
%TD*%
D21*
%TO.C,C87*%
X153390000Y-116425000D03*
X153390000Y-117975000D03*
%TD*%
D17*
%TO.C,C22*%
X102750000Y-82500000D03*
X102750000Y-92500000D03*
%TD*%
D31*
%TO.C,U7*%
X150545000Y-112650000D03*
X151815000Y-112650000D03*
X153085000Y-112650000D03*
X154355000Y-112650000D03*
X155625000Y-112650000D03*
X156895000Y-112650000D03*
X158165000Y-112650000D03*
X159435000Y-112650000D03*
X159435000Y-103350000D03*
X158165000Y-103350000D03*
X156895000Y-103350000D03*
X155625000Y-103350000D03*
X154355000Y-103350000D03*
X153085000Y-103350000D03*
X151815000Y-103350000D03*
X150545000Y-103350000D03*
%TD*%
D18*
%TO.C,C13*%
X56250000Y-57775000D03*
X56250000Y-56225000D03*
%TD*%
D16*
%TO.C,R9*%
X136412500Y-103000000D03*
X134587500Y-103000000D03*
%TD*%
D20*
%TO.C,R52*%
X151815000Y-99375000D03*
X151815000Y-101025000D03*
%TD*%
D21*
%TO.C,C69*%
X120500000Y-107225000D03*
X120500000Y-108775000D03*
%TD*%
D30*
%TO.C,H3*%
X53250000Y-30500000D03*
%TD*%
D29*
%TO.C,R53*%
X153575000Y-97722500D03*
X151925000Y-97722500D03*
%TD*%
D32*
%TO.C,U8*%
X114435000Y-58470000D03*
D33*
X114435000Y-63550000D03*
X114435000Y-68630000D03*
X114435000Y-73710000D03*
X114435000Y-78790000D03*
X114435000Y-83870000D03*
X114435000Y-88950000D03*
X114435000Y-94030000D03*
X139835000Y-94030000D03*
X139835000Y-88950000D03*
X139835000Y-83870000D03*
X139835000Y-78790000D03*
X139835000Y-73710000D03*
X139835000Y-68630000D03*
X139835000Y-63550000D03*
X139835000Y-58470000D03*
%TD*%
D13*
%TO.C,C39*%
X126475000Y-121500000D03*
X128025000Y-121500000D03*
%TD*%
D19*
%TO.C,C26*%
X56275000Y-88475000D03*
X54725000Y-88475000D03*
%TD*%
D18*
%TO.C,C14*%
X56250000Y-87000000D03*
X56250000Y-85450000D03*
%TD*%
D20*
%TO.C,R32*%
X73277500Y-64005000D03*
X73277500Y-65655000D03*
%TD*%
D22*
%TO.C,R51*%
X150265000Y-101025000D03*
X150265000Y-99375000D03*
%TD*%
D34*
%TO.C,D16*%
X159750000Y-97330000D03*
D35*
X159750000Y-95430000D03*
%TD*%
D29*
%TO.C,R42*%
X71675000Y-90700000D03*
X70025000Y-90700000D03*
%TD*%
D22*
%TO.C,R28*%
X167240000Y-117825000D03*
X167240000Y-116175000D03*
%TD*%
D13*
%TO.C,C37*%
X70675000Y-98800000D03*
X72225000Y-98800000D03*
%TD*%
D36*
%TO.C,U2*%
X58350000Y-58030000D03*
X58350000Y-59300000D03*
X58350000Y-60570000D03*
X58350000Y-61840000D03*
X58350000Y-63110000D03*
X58350000Y-64380000D03*
X58350000Y-65650000D03*
X58350000Y-66920000D03*
X67650000Y-66920000D03*
X67650000Y-65650000D03*
X67650000Y-64380000D03*
X67650000Y-63110000D03*
X67650000Y-61840000D03*
X67650000Y-60570000D03*
X67650000Y-59300000D03*
X67650000Y-58030000D03*
%TD*%
D18*
%TO.C,C29*%
X58250000Y-81275000D03*
X58250000Y-79725000D03*
%TD*%
D22*
%TO.C,R13*%
X73277500Y-60955000D03*
X73277500Y-59305000D03*
%TD*%
%TO.C,R44*%
X54500000Y-92300000D03*
X54500000Y-90650000D03*
%TD*%
D37*
%TO.C,R5*%
X126000000Y-101587500D03*
X126000000Y-103412500D03*
%TD*%
D22*
%TO.C,R18*%
X94500000Y-97075000D03*
X94500000Y-95425000D03*
%TD*%
D29*
%TO.C,R36*%
X71625000Y-84300000D03*
X69975000Y-84300000D03*
%TD*%
D38*
%TO.C,C41*%
X171000000Y-37500000D03*
D39*
X171000000Y-45000000D03*
%TD*%
D20*
%TO.C,R1*%
X74077500Y-53925000D03*
X74077500Y-55575000D03*
%TD*%
D29*
%TO.C,R48*%
X174815000Y-115000000D03*
X173165000Y-115000000D03*
%TD*%
D36*
%TO.C,U5*%
X58350000Y-83030000D03*
X58350000Y-84300000D03*
X58350000Y-85570000D03*
X58350000Y-86840000D03*
X58350000Y-88110000D03*
X58350000Y-89380000D03*
X58350000Y-90650000D03*
X58350000Y-91920000D03*
X67650000Y-91920000D03*
X67650000Y-90650000D03*
X67650000Y-89380000D03*
X67650000Y-88110000D03*
X67650000Y-86840000D03*
X67650000Y-85570000D03*
X67650000Y-84300000D03*
X67650000Y-83030000D03*
%TD*%
D20*
%TO.C,R57*%
X158215000Y-99325000D03*
X158215000Y-100975000D03*
%TD*%
D13*
%TO.C,C75*%
X136575000Y-118900000D03*
X138125000Y-118900000D03*
%TD*%
D17*
%TO.C,C21*%
X149000000Y-39750000D03*
X159000000Y-39750000D03*
%TD*%
D25*
%TO.C,R10*%
X134587500Y-100250000D03*
X136412500Y-100250000D03*
%TD*%
D22*
%TO.C,R39*%
X52500000Y-92300000D03*
X52500000Y-90650000D03*
%TD*%
D29*
%TO.C,R34*%
X72575000Y-77250000D03*
X70925000Y-77250000D03*
%TD*%
D20*
%TO.C,R50*%
X146790000Y-112175000D03*
X146790000Y-113825000D03*
%TD*%
D35*
%TO.C,D13*%
X174750000Y-95430000D03*
D34*
X174750000Y-97330000D03*
%TD*%
D17*
%TO.C,C48*%
X179750000Y-102250000D03*
X179750000Y-92250000D03*
%TD*%
D18*
%TO.C,C67*%
X83875000Y-98200000D03*
X83875000Y-96650000D03*
%TD*%
D40*
%TO.C,D7*%
X73670000Y-67130000D03*
D35*
X75570000Y-67130000D03*
%TD*%
D41*
%TO.C,C73*%
X143300000Y-100250000D03*
X145200000Y-100250000D03*
%TD*%
D19*
%TO.C,C27*%
X169275000Y-114750000D03*
X167725000Y-114750000D03*
%TD*%
D18*
%TO.C,C31*%
X56000000Y-92250000D03*
X56000000Y-90700000D03*
%TD*%
D22*
%TO.C,R38*%
X51000000Y-92300000D03*
X51000000Y-90650000D03*
%TD*%
D18*
%TO.C,C43*%
X51000000Y-73998500D03*
X51000000Y-72448500D03*
%TD*%
%TO.C,C65*%
X84500000Y-110275000D03*
X84500000Y-108725000D03*
%TD*%
D31*
%TO.C,U6*%
X165545000Y-112650000D03*
X166815000Y-112650000D03*
X168085000Y-112650000D03*
X169355000Y-112650000D03*
X170625000Y-112650000D03*
X171895000Y-112650000D03*
X173165000Y-112650000D03*
X174435000Y-112650000D03*
X174435000Y-103350000D03*
X173165000Y-103350000D03*
X171895000Y-103350000D03*
X170625000Y-103350000D03*
X169355000Y-103350000D03*
X168085000Y-103350000D03*
X166815000Y-103350000D03*
X165545000Y-103350000D03*
%TD*%
D17*
%TO.C,C5*%
X149000000Y-47000000D03*
X159000000Y-47000000D03*
%TD*%
D40*
%TO.C,D5*%
X73600000Y-57830000D03*
D35*
X75500000Y-57830000D03*
%TD*%
D19*
%TO.C,C12*%
X56275000Y-63475000D03*
X54725000Y-63475000D03*
%TD*%
D40*
%TO.C,D11*%
X73670000Y-92130000D03*
D35*
X75570000Y-92130000D03*
%TD*%
D13*
%TO.C,C74*%
X131475000Y-110500000D03*
X133025000Y-110500000D03*
%TD*%
D22*
%TO.C,R3*%
X52250000Y-67300000D03*
X52250000Y-65650000D03*
%TD*%
D20*
%TO.C,R46*%
X173215000Y-99325000D03*
X173215000Y-100975000D03*
%TD*%
D29*
%TO.C,R30*%
X105150000Y-118500000D03*
X103500000Y-118500000D03*
%TD*%
D42*
%TO.C,D14*%
X146990000Y-106000000D03*
X146990000Y-110000000D03*
%TD*%
D18*
%TO.C,C3*%
X109800000Y-122775000D03*
X109800000Y-121225000D03*
%TD*%
D43*
%TO.C,Y1*%
X103425000Y-111625000D03*
X105075000Y-111625000D03*
X105075000Y-110375000D03*
X103425000Y-110375000D03*
%TD*%
D19*
%TO.C,C35*%
X71275000Y-70500000D03*
X69725000Y-70500000D03*
%TD*%
D44*
%TO.C,IC9*%
X82405000Y-98925000D03*
X81135000Y-98925000D03*
X79865000Y-98925000D03*
X78595000Y-98925000D03*
X78595000Y-109575000D03*
X79865000Y-109575000D03*
X81135000Y-109575000D03*
X82405000Y-109575000D03*
%TD*%
D22*
%TO.C,R23*%
X165740000Y-117825000D03*
X165740000Y-116175000D03*
%TD*%
D45*
%TO.C,D2*%
X146000000Y-91670000D03*
D46*
X146000000Y-96750000D03*
%TD*%
D22*
%TO.C,R40*%
X61500000Y-107575000D03*
X61500000Y-105925000D03*
%TD*%
%TO.C,R56*%
X159765000Y-100975000D03*
X159765000Y-99325000D03*
%TD*%
D21*
%TO.C,C79*%
X170750000Y-114725000D03*
X170750000Y-116275000D03*
%TD*%
D38*
%TO.C,C53*%
X137000000Y-37500000D03*
D39*
X137000000Y-45000000D03*
%TD*%
D29*
%TO.C,R11*%
X71625000Y-59300000D03*
X69975000Y-59300000D03*
%TD*%
D17*
%TO.C,C52*%
X90750000Y-82500000D03*
X90750000Y-92500000D03*
%TD*%
D29*
%TO.C,R31*%
X71675000Y-65700000D03*
X70025000Y-65700000D03*
%TD*%
D18*
%TO.C,C77*%
X163850000Y-114025000D03*
X163850000Y-112475000D03*
%TD*%
D13*
%TO.C,C70*%
X109975000Y-105400000D03*
X111525000Y-105400000D03*
%TD*%
D29*
%TO.C,R59*%
X159815000Y-115000000D03*
X158165000Y-115000000D03*
%TD*%
D47*
%TO.C,U1*%
X108075000Y-110000000D03*
X108075000Y-110500000D03*
X108075000Y-111000000D03*
X108075000Y-111500000D03*
X108075000Y-112000000D03*
X108075000Y-112500000D03*
X108075000Y-113000000D03*
X108075000Y-113500000D03*
X108075000Y-114000000D03*
X108075000Y-114500000D03*
X108075000Y-115000000D03*
X108075000Y-115500000D03*
X108075000Y-116000000D03*
X108075000Y-116500000D03*
X108075000Y-117000000D03*
X108075000Y-117500000D03*
D48*
X110000000Y-119425000D03*
X110500000Y-119425000D03*
X111000000Y-119425000D03*
X111500000Y-119425000D03*
X112000000Y-119425000D03*
X112500000Y-119425000D03*
X113000000Y-119425000D03*
X113500000Y-119425000D03*
X114000000Y-119425000D03*
X114500000Y-119425000D03*
X115000000Y-119425000D03*
X115500000Y-119425000D03*
X116000000Y-119425000D03*
X116500000Y-119425000D03*
X117000000Y-119425000D03*
X117500000Y-119425000D03*
D47*
X119425000Y-117500000D03*
X119425000Y-117000000D03*
X119425000Y-116500000D03*
X119425000Y-116000000D03*
X119425000Y-115500000D03*
X119425000Y-115000000D03*
X119425000Y-114500000D03*
X119425000Y-114000000D03*
X119425000Y-113500000D03*
X119425000Y-113000000D03*
X119425000Y-112500000D03*
X119425000Y-112000000D03*
X119425000Y-111500000D03*
X119425000Y-111000000D03*
X119425000Y-110500000D03*
X119425000Y-110000000D03*
D48*
X117500000Y-108075000D03*
X117000000Y-108075000D03*
X116500000Y-108075000D03*
X116000000Y-108075000D03*
X115500000Y-108075000D03*
X115000000Y-108075000D03*
X114500000Y-108075000D03*
X114000000Y-108075000D03*
X113500000Y-108075000D03*
X113000000Y-108075000D03*
X112500000Y-108075000D03*
X112000000Y-108075000D03*
X111500000Y-108075000D03*
X111000000Y-108075000D03*
X110500000Y-108075000D03*
X110000000Y-108075000D03*
%TD*%
D21*
%TO.C,C59*%
X95650000Y-111575000D03*
X95650000Y-113125000D03*
%TD*%
D18*
%TO.C,C86*%
X148850000Y-113775000D03*
X148850000Y-112225000D03*
%TD*%
D16*
%TO.C,R22*%
X132912500Y-103000000D03*
X131087500Y-103000000D03*
%TD*%
D42*
%TO.C,D6*%
X162200000Y-105975000D03*
X162200000Y-109975000D03*
%TD*%
D21*
%TO.C,C10*%
X104000000Y-114975000D03*
X104000000Y-116525000D03*
%TD*%
D22*
%TO.C,R19*%
X90000000Y-97075000D03*
X90000000Y-95425000D03*
%TD*%
D17*
%TO.C,C33*%
X95500000Y-39750000D03*
X85500000Y-39750000D03*
%TD*%
D22*
%TO.C,R4*%
X161890000Y-113825000D03*
X161890000Y-112175000D03*
%TD*%
D49*
%TO.C,PS1*%
X72500000Y-97500000D03*
X72500000Y-96550000D03*
X72500000Y-95600000D03*
X70000000Y-95600000D03*
X70000000Y-97500000D03*
%TD*%
D22*
%TO.C,R2*%
X50750000Y-67300000D03*
X50750000Y-65650000D03*
%TD*%
D13*
%TO.C,C42*%
X127375000Y-106950000D03*
X128925000Y-106950000D03*
%TD*%
D50*
%TO.C,D1*%
X69762500Y-72350000D03*
X69762500Y-74250000D03*
X71862500Y-73300000D03*
%TD*%
D44*
%TO.C,IC5*%
X94155000Y-98925000D03*
X92885000Y-98925000D03*
X91615000Y-98925000D03*
X90345000Y-98925000D03*
X90345000Y-109575000D03*
X91615000Y-109575000D03*
X92885000Y-109575000D03*
X94155000Y-109575000D03*
%TD*%
D18*
%TO.C,C68*%
X85325000Y-98200000D03*
X85325000Y-96650000D03*
%TD*%
D10*
%TO.C,R35*%
X69975000Y-82750000D03*
X71625000Y-82750000D03*
%TD*%
D51*
%TO.C,D8*%
X67827500Y-54975000D03*
X71827500Y-54975000D03*
%TD*%
D29*
%TO.C,R20*%
X124420000Y-105200000D03*
X122770000Y-105200000D03*
%TD*%
D10*
%TO.C,R15*%
X70025000Y-67250000D03*
X71675000Y-67250000D03*
%TD*%
D19*
%TO.C,C16*%
X106025000Y-113362500D03*
X104475000Y-113362500D03*
%TD*%
%TO.C,C30*%
X54775000Y-84250000D03*
X53225000Y-84250000D03*
%TD*%
D52*
%TO.C,J5*%
X113000000Y-122750000D03*
D53*
X111730000Y-122750000D03*
%TD*%
D54*
%TO.C,D4*%
X100237500Y-118500000D03*
X101812500Y-118500000D03*
%TD*%
D19*
%TO.C,C46*%
X93000000Y-97000000D03*
X91450000Y-97000000D03*
%TD*%
D10*
%TO.C,R41*%
X70025000Y-92250000D03*
X71675000Y-92250000D03*
%TD*%
%TO.C,R12*%
X125975000Y-105200000D03*
X127625000Y-105200000D03*
%TD*%
D29*
%TO.C,R27*%
X81325000Y-95500000D03*
X79675000Y-95500000D03*
%TD*%
D34*
%TO.C,D15*%
X150345000Y-97400000D03*
D35*
X150345000Y-95500000D03*
%TD*%
D19*
%TO.C,C1*%
X118025000Y-121250000D03*
X116475000Y-121250000D03*
%TD*%
D22*
%TO.C,R45*%
X174765000Y-100975000D03*
X174765000Y-99325000D03*
%TD*%
D52*
%TO.C,J4*%
X118500000Y-105300000D03*
D53*
X117230000Y-105300000D03*
X115960000Y-105300000D03*
X114690000Y-105300000D03*
X113420000Y-105300000D03*
%TD*%
D21*
%TO.C,C36*%
X68250000Y-95525000D03*
X68250000Y-97075000D03*
%TD*%
D55*
%TO.C,C34*%
X75250000Y-70850000D03*
X75250000Y-73650000D03*
%TD*%
D40*
%TO.C,D10*%
X73600000Y-82830000D03*
D35*
X75500000Y-82830000D03*
%TD*%
D18*
%TO.C,C2*%
X107250000Y-108275000D03*
X107250000Y-106725000D03*
%TD*%
D21*
%TO.C,C44*%
X74300000Y-97250000D03*
X74300000Y-98800000D03*
%TD*%
D20*
%TO.C,R16*%
X166815000Y-99375000D03*
X166815000Y-101025000D03*
%TD*%
D29*
%TO.C,R17*%
X168470000Y-97722500D03*
X166820000Y-97722500D03*
%TD*%
D22*
%TO.C,R54*%
X150740000Y-117825000D03*
X150740000Y-116175000D03*
%TD*%
D25*
%TO.C,R21*%
X138087500Y-100250000D03*
X139912500Y-100250000D03*
%TD*%
D56*
%TO.C,IC3*%
X56655000Y-70549500D03*
X55385000Y-70549500D03*
X54115000Y-70549500D03*
X52845000Y-70549500D03*
X52845000Y-75973500D03*
X54115000Y-75973500D03*
X55385000Y-75973500D03*
X56655000Y-75973500D03*
%TD*%
D30*
%TO.C,H4*%
X179750000Y-30500000D03*
%TD*%
D22*
%TO.C,R33*%
X56250000Y-67300000D03*
X56250000Y-65650000D03*
%TD*%
D10*
%TO.C,R6*%
X69975000Y-57750000D03*
X71625000Y-57750000D03*
%TD*%
D21*
%TO.C,C78*%
X168740000Y-116225000D03*
X168740000Y-117775000D03*
%TD*%
D57*
%TO.C,T1*%
X58430000Y-70760000D03*
X58430000Y-73300000D03*
X58430000Y-75840000D03*
X67570000Y-75840000D03*
X67570000Y-73300000D03*
X67570000Y-70760000D03*
%TD*%
D44*
%TO.C,IC4*%
X127100000Y-108875000D03*
X125830000Y-108875000D03*
X124560000Y-108875000D03*
X123290000Y-108875000D03*
X123290000Y-119525000D03*
X124560000Y-119525000D03*
X125830000Y-119525000D03*
X127100000Y-119525000D03*
%TD*%
D10*
%TO.C,R49*%
X140665000Y-118100000D03*
X142315000Y-118100000D03*
%TD*%
D18*
%TO.C,C18*%
X56250000Y-62000000D03*
X56250000Y-60450000D03*
%TD*%
D34*
%TO.C,D12*%
X165250000Y-97400000D03*
D35*
X165250000Y-95500000D03*
%TD*%
D22*
%TO.C,R37*%
X73277500Y-85955000D03*
X73277500Y-84305000D03*
%TD*%
D18*
%TO.C,C64*%
X86000000Y-110275000D03*
X86000000Y-108725000D03*
%TD*%
D27*
%TO.C,J1*%
X156540000Y-31250000D03*
D28*
X151460000Y-31250000D03*
%TD*%
D19*
%TO.C,C66*%
X81275000Y-97000000D03*
X79725000Y-97000000D03*
%TD*%
D21*
%TO.C,C88*%
X155690000Y-114675000D03*
X155690000Y-116225000D03*
%TD*%
D30*
%TO.C,H1*%
X53250000Y-121750000D03*
%TD*%
D51*
%TO.C,D9*%
X67827500Y-79975000D03*
X71827500Y-79975000D03*
%TD*%
D58*
%TO.C,Q2*%
X166180000Y-90027500D03*
D59*
X168720000Y-90027500D03*
X171260000Y-90027500D03*
%TD*%
D60*
%TO.C,Q5*%
X77777500Y-91285000D03*
D61*
X77777500Y-88745000D03*
X77777500Y-86205000D03*
%TD*%
D58*
%TO.C,Q7*%
X151180000Y-90027500D03*
D59*
X153720000Y-90027500D03*
X156260000Y-90027500D03*
%TD*%
D58*
%TO.C,Q6*%
X173800000Y-93222500D03*
D59*
X171260000Y-93222500D03*
X168720000Y-93222500D03*
%TD*%
D58*
%TO.C,Q8*%
X158800000Y-93222500D03*
D59*
X156260000Y-93222500D03*
X153720000Y-93222500D03*
%TD*%
D60*
%TO.C,Q3*%
X77777500Y-66285000D03*
D61*
X77777500Y-63745000D03*
X77777500Y-61205000D03*
%TD*%
D60*
%TO.C,Q4*%
X80972500Y-83665000D03*
D61*
X80972500Y-86205000D03*
X80972500Y-88745000D03*
%TD*%
D60*
%TO.C,Q1*%
X80972500Y-58665000D03*
D61*
X80972500Y-61205000D03*
X80972500Y-63745000D03*
%TD*%
M02*
