M48
METRIC
T1C0.400
T2C0.650
T3C1.000
T4C1.100
T5C1.200
T6C1.350
T7C1.400
T8C1.520
T9C1.800
T10C2.000
%
G90
G05
T1
X50.74Y-93.49
X50.75Y-89.25
X51.0Y-71.373
X51.0Y-118.25
X51.5Y-68.25
X51.95Y-115.3
X52.0Y-84.25
X52.25Y-59.25
X52.75Y-95.75
X53.25Y-68.0
X54.75Y-95.75
X54.75Y-108.25
X55.0Y-56.25
X55.25Y-62.0
X55.25Y-68.0
X55.25Y-87.0
X55.25Y-93.0
X55.385Y-72.224
X55.385Y-74.474
X56.0Y-89.5
X56.25Y-64.5
X56.75Y-95.25
X57.25Y-79.75
X59.25Y-119.0
X67.0Y-82.095
X67.028Y-57.1
X67.028Y-67.85
X67.03Y-92.845
X67.8Y-82.095
X67.828Y-57.1
X67.828Y-67.85
X67.83Y-92.845
X68.25Y-98.05
X68.5Y-73.3
X68.6Y-82.095
X68.627Y-57.1
X68.627Y-67.85
X68.63Y-92.845
X68.75Y-70.0
X69.3Y-60.75
X69.3Y-64.25
X69.3Y-85.75
X69.3Y-89.25
X69.9Y-98.8
X70.127Y-64.25
X70.127Y-89.25
X70.15Y-60.75
X70.15Y-85.75
X71.25Y-96.55
X72.3Y-64.0
X73.3Y-98.6
X74.278Y-89.005
X75.036Y-75.0
X76.775Y-96.125
X77.9Y-98.4
X78.6Y-111.0
X78.9Y-95.6
X83.05Y-96.65
X83.1Y-98.6
X83.5Y-108.75
X83.525Y-92.775
X84.5Y-80.4
X86.5Y-119.5
X89.25Y-98.5
X89.5Y-110.25
X90.891Y-111.725
X91.725Y-95.65
X92.35Y-111.725
X92.775Y-95.65
X93.25Y-113.15
X94.15Y-114.05
X95.5Y-99.0
X95.539Y-97.512
X95.65Y-114.05
X99.125Y-118.5
X100.2Y-106.15
X100.2Y-107.95
X102.575Y-109.525
X102.7Y-119.5
X102.9Y-117.5
X103.0Y-115.0
X103.362Y-113.362
X105.0Y-116.5
X105.25Y-115.0
X106.25Y-111.6
X106.3Y-106.7
X108.8Y-122.2
X110.25Y-111.5
X111.5Y-115.7
X111.575Y-106.475
X111.7Y-113.5
X111.8Y-109.8
X113.4Y-114.085
X113.4Y-115.5
X114.0Y-111.5
X114.5Y-116.0
X114.6Y-121.1
X115.75Y-121.95
X116.25Y-117.25
X116.8Y-106.5
X117.0Y-110.0
X117.25Y-115.25
X118.0Y-116.4
X119.2Y-122.275
X119.2Y-123.724
X120.13Y-106.12
X120.799Y-110.0
X121.12Y-105.13
X122.25Y-119.75
X123.29Y-106.25
X123.29Y-107.29
X128.5Y-104.75
X128.75Y-120.5
X128.9Y-107.9
X134.5Y-111.0
X137.75Y-107.25
X137.75Y-109.0
X137.75Y-110.75
X137.75Y-112.5
X139.05Y-118.9
X141.0Y-101.25
X142.5Y-121.025
X142.5Y-122.474
X144.25Y-107.25
X144.25Y-109.0
X144.25Y-110.75
X144.25Y-112.5
X145.25Y-101.75
X149.49Y-111.25
X149.99Y-102.024
X150.545Y-104.805
X153.085Y-101.845
X153.085Y-104.905
X153.39Y-118.975
X154.39Y-111.2
X155.99Y-117.25
X156.49Y-96.75
X156.74Y-101.75
X156.99Y-105.0
X159.99Y-102.0
X159.99Y-104.75
X160.74Y-115.75
X164.49Y-111.25
X164.99Y-102.024
X165.533Y-104.812
X168.085Y-101.75
X168.087Y-104.852
X169.25Y-111.0
X169.74Y-118.0
X170.75Y-117.25
X171.49Y-96.75
X171.74Y-101.75
X171.99Y-105.0
X174.99Y-102.0
X174.99Y-105.0
X175.74Y-115.75
T2
X111.73Y-122.75
X113.0Y-122.75
X113.42Y-105.3
X114.69Y-105.3
X115.96Y-105.3
X117.23Y-105.3
X118.5Y-105.3
T3
X85.5Y-39.75
X90.75Y-82.5
X90.75Y-92.5
X95.5Y-39.75
X102.75Y-82.5
X102.75Y-92.5
X147.245Y-72.6
X147.245Y-84.0
X149.0Y-39.75
X149.0Y-47.0
X154.745Y-72.6
X154.745Y-84.0
X159.0Y-39.75
X159.0Y-47.0
X166.2Y-72.6
X166.2Y-84.0
X173.7Y-72.6
X173.7Y-84.0
X179.75Y-92.25
X179.75Y-102.25
T4
X77.778Y-61.205
X77.778Y-63.745
X77.778Y-66.285
X77.778Y-86.205
X77.778Y-88.745
X77.778Y-91.285
X80.972Y-58.665
X80.972Y-61.205
X80.972Y-63.745
X80.972Y-83.665
X80.972Y-86.205
X80.972Y-88.745
X151.18Y-90.027
X153.72Y-90.027
X153.72Y-93.222
X156.26Y-90.027
X156.26Y-93.222
X158.8Y-93.222
X166.18Y-90.027
X168.72Y-90.027
X168.72Y-93.222
X171.26Y-90.027
X171.26Y-93.222
X173.8Y-93.222
T5
X137.0Y-37.5
X137.0Y-45.0
X171.0Y-37.5
X171.0Y-45.0
T6
X114.435Y-58.47
X114.435Y-63.55
X114.435Y-68.63
X114.435Y-73.71
X114.435Y-78.79
X114.435Y-83.87
X114.435Y-88.95
X114.435Y-94.03
X139.835Y-58.47
X139.835Y-63.55
X139.835Y-68.63
X139.835Y-73.71
X139.835Y-78.79
X139.835Y-83.87
X139.835Y-88.95
X139.835Y-94.03
T7
X146.0Y-91.67
X146.0Y-96.75
T8
X87.92Y-31.25
X93.0Y-31.25
X151.46Y-31.25
X156.54Y-31.25
T9
X89.32Y-63.75
X100.75Y-63.75
X160.5Y-54.0
X160.5Y-65.43
T10
X67.0Y-35.145
X67.0Y-45.145
X114.0Y-35.0
X114.0Y-45.0
T0
M30
